<?xml version="1.0" encoding="UTF-8" standalone="no"?>
<!DOCTYPE svg PUBLIC "-//W3C//DTD SVG 1.1//EN"
 "http://www.w3.org/Graphics/SVG/1.1/DTD/svg11.dtd">
<!-- Generated by graphviz version 15.1.0 (20260618.0150)
 -->
<!-- Title: physics_formula_atlas Pages: 1 -->
<svg width="671pt" height="1200pt"
 viewBox="0.00 0.00 671.00 1200.00" xmlns="http://www.w3.org/2000/svg" xmlns:xlink="http://www.w3.org/1999/xlink">
<g id="graph0" class="graph" transform="scale(1 1) rotate(0) translate(4 1196.38)">
<title>physics_formula_atlas</title>
<polygon fill="white" stroke="none" points="-4,4 -4,-1196.38 666.5,-1196.38 666.5,4 -4,4"/>
<text xml:space="preserve" text-anchor="middle" x="331.25" y="-1175.08" font-family="Helvetica,sans-Serif" font-size="14.00">physics&#45;formula&#45;atlas &#45;&#45; cross&#45;capsule discharge map (28 edges, the nodes that carry them)</text>
<g id="clust1" class="cluster">
<title>cluster_physics_newtonian</title>
<polygon fill="#f8fafc" stroke="#94a3b8" points="8,-113.38 8,-458.38 138.25,-458.38 138.25,-113.38 8,-113.38"/>
<text xml:space="preserve" text-anchor="middle" x="73.12" y="-441.08" font-family="Helvetica,sans-Serif" font-size="14.00">physics&#45;newtonian</text>
</g>
<g id="clust2" class="cluster">
<title>cluster_physics_thermodynamics</title>
<polygon fill="#f8fafc" stroke="#94a3b8" points="158.25,-429.38 158.25,-1152.38 324.25,-1152.38 324.25,-429.38 158.25,-429.38"/>
<text xml:space="preserve" text-anchor="middle" x="241.25" y="-1135.08" font-family="Helvetica,sans-Serif" font-size="14.00">physics&#45;thermodynamics</text>
</g>
<g id="clust3" class="cluster">
<title>cluster_physics_thermoacoustics</title>
<polygon fill="#f8fafc" stroke="#94a3b8" points="494.5,-492.38 494.5,-1161.38 659,-1161.38 659,-492.38 494.5,-492.38"/>
<text xml:space="preserve" text-anchor="middle" x="576.75" y="-1144.08" font-family="Helvetica,sans-Serif" font-size="14.00">physics&#45;thermoacoustics</text>
</g>
<g id="clust4" class="cluster">
<title>cluster_physics_acoustics</title>
<polygon fill="#f8fafc" stroke="#94a3b8" points="344.25,-113.38 344.25,-836.38 474.5,-836.38 474.5,-113.38 344.25,-113.38"/>
<text xml:space="preserve" text-anchor="middle" x="409.38" y="-819.08" font-family="Helvetica,sans-Serif" font-size="14.00">physics&#45;acoustics</text>
</g>
<!-- physics_newtonian__SI_units -->
<g id="node1" class="node">
<title>physics_newtonian__SI_units</title>
<path fill="#dbeafe" stroke="black" d="M88.62,-319.38C88.62,-319.38 57.62,-319.38 57.62,-319.38 51.62,-319.38 45.62,-313.38 45.62,-307.38 45.62,-307.38 45.62,-295.38 45.62,-295.38 45.62,-289.38 51.62,-283.38 57.62,-283.38 57.62,-283.38 88.62,-283.38 88.62,-283.38 94.62,-283.38 100.62,-289.38 100.62,-295.38 100.62,-295.38 100.62,-307.38 100.62,-307.38 100.62,-313.38 94.62,-319.38 88.62,-319.38"/>
<text xml:space="preserve" text-anchor="middle" x="73.12" y="-296.93" font-family="Helvetica,sans-Serif" font-size="11.00">SI_units</text>
</g>
<!-- physics_thermodynamics__SI_units -->
<g id="node7" class="node">
<title>physics_thermodynamics__SI_units</title>
<path fill="#fef3c7" stroke="black" d="M256.25,-1013.38C256.25,-1013.38 225.25,-1013.38 225.25,-1013.38 219.25,-1013.38 213.25,-1007.38 213.25,-1001.38 213.25,-1001.38 213.25,-989.38 213.25,-989.38 213.25,-983.38 219.25,-977.38 225.25,-977.38 225.25,-977.38 256.25,-977.38 256.25,-977.38 262.25,-977.38 268.25,-983.38 268.25,-989.38 268.25,-989.38 268.25,-1001.38 268.25,-1001.38 268.25,-1007.38 262.25,-1013.38 256.25,-1013.38"/>
<text xml:space="preserve" text-anchor="middle" x="240.75" y="-990.93" font-family="Helvetica,sans-Serif" font-size="11.00">SI_units</text>
</g>
<!-- physics_newtonian__SI_units&#45;&gt;physics_thermodynamics__SI_units -->
<g id="edge5" class="edge">
<title>physics_newtonian__SI_units&#45;&gt;physics_thermodynamics__SI_units</title>
<path fill="none" stroke="#555555" d="M100.93,-305.67C114.46,-309.31 129.77,-316.03 138.25,-328.38 178.53,-387.03 115.7,-911.36 158.25,-968.38 168.36,-981.94 185.52,-988.78 201.49,-992.2"/>
<polygon fill="#555555" stroke="#555555" points="200.86,-995.64 211.3,-993.87 202.04,-988.74 200.86,-995.64"/>
</g>
<!-- physics_thermoacoustics__SI_units -->
<g id="node20" class="node">
<title>physics_thermoacoustics__SI_units</title>
<path fill="#fee2e2" stroke="black" d="M591.75,-644.38C591.75,-644.38 560.75,-644.38 560.75,-644.38 554.75,-644.38 548.75,-638.38 548.75,-632.38 548.75,-632.38 548.75,-620.38 548.75,-620.38 548.75,-614.38 554.75,-608.38 560.75,-608.38 560.75,-608.38 591.75,-608.38 591.75,-608.38 597.75,-608.38 603.75,-614.38 603.75,-620.38 603.75,-620.38 603.75,-632.38 603.75,-632.38 603.75,-638.38 597.75,-644.38 591.75,-644.38"/>
<text xml:space="preserve" text-anchor="middle" x="576.25" y="-621.93" font-family="Helvetica,sans-Serif" font-size="11.00">SI_units</text>
</g>
<!-- physics_newtonian__SI_units&#45;&gt;physics_thermoacoustics__SI_units -->
<g id="edge7" class="edge">
<title>physics_newtonian__SI_units&#45;&gt;physics_thermoacoustics__SI_units</title>
<path fill="none" stroke="#555555" d="M100.82,-292.05C112.65,-287.44 126.52,-281.36 138.25,-274.38 281.29,-189.23 354.41,5.9 474.5,-109.38 513.81,-147.12 461.76,-555.82 494.5,-599.38 504.58,-612.79 521.58,-619.62 537.4,-623.06"/>
<polygon fill="#555555" stroke="#555555" points="536.64,-626.48 547.09,-624.76 537.85,-619.59 536.64,-626.48"/>
</g>
<!-- physics_acoustics__SI_units -->
<g id="node32" class="node">
<title>physics_acoustics__SI_units</title>
<path fill="#dcfce7" stroke="black" d="M424.88,-319.38C424.88,-319.38 393.88,-319.38 393.88,-319.38 387.88,-319.38 381.88,-313.38 381.88,-307.38 381.88,-307.38 381.88,-295.38 381.88,-295.38 381.88,-289.38 387.88,-283.38 393.88,-283.38 393.88,-283.38 424.88,-283.38 424.88,-283.38 430.88,-283.38 436.88,-289.38 436.88,-295.38 436.88,-295.38 436.88,-307.38 436.88,-307.38 436.88,-313.38 430.88,-319.38 424.88,-319.38"/>
<text xml:space="preserve" text-anchor="middle" x="409.38" y="-296.93" font-family="Helvetica,sans-Serif" font-size="11.00">SI_units</text>
</g>
<!-- physics_newtonian__SI_units&#45;&gt;physics_acoustics__SI_units -->
<g id="edge20" class="edge">
<title>physics_newtonian__SI_units&#45;&gt;physics_acoustics__SI_units</title>
<path fill="none" stroke="#555555" d="M100.91,-301.38C159.95,-301.38 301.46,-301.38 369.95,-301.38"/>
<polygon fill="#555555" stroke="#555555" points="369.95,-304.88 379.95,-301.38 369.95,-297.88 369.95,-304.88"/>
</g>
<!-- physics_newtonian__length -->
<g id="node2" class="node">
<title>physics_newtonian__length</title>
<path fill="#dbeafe" stroke="black" d="M88.12,-427.38C88.12,-427.38 58.12,-427.38 58.12,-427.38 52.12,-427.38 46.12,-421.38 46.12,-415.38 46.12,-415.38 46.12,-403.38 46.12,-403.38 46.12,-397.38 52.12,-391.38 58.12,-391.38 58.12,-391.38 88.12,-391.38 88.12,-391.38 94.12,-391.38 100.12,-397.38 100.12,-403.38 100.12,-403.38 100.12,-415.38 100.12,-415.38 100.12,-421.38 94.12,-427.38 88.12,-427.38"/>
<text xml:space="preserve" text-anchor="middle" x="73.12" y="-404.93" font-family="Helvetica,sans-Serif" font-size="11.00">length</text>
</g>
<!-- physics_thermodynamics__length -->
<g id="node14" class="node">
<title>physics_thermodynamics__length</title>
<path fill="#fef3c7" stroke="black" d="M255.75,-1121.38C255.75,-1121.38 225.75,-1121.38 225.75,-1121.38 219.75,-1121.38 213.75,-1115.38 213.75,-1109.38 213.75,-1109.38 213.75,-1097.38 213.75,-1097.38 213.75,-1091.38 219.75,-1085.38 225.75,-1085.38 225.75,-1085.38 255.75,-1085.38 255.75,-1085.38 261.75,-1085.38 267.75,-1091.38 267.75,-1097.38 267.75,-1097.38 267.75,-1109.38 267.75,-1109.38 267.75,-1115.38 261.75,-1121.38 255.75,-1121.38"/>
<text xml:space="preserve" text-anchor="middle" x="240.75" y="-1098.93" font-family="Helvetica,sans-Serif" font-size="11.00">length</text>
</g>
<!-- physics_newtonian__length&#45;&gt;physics_thermodynamics__length -->
<g id="edge1" class="edge">
<title>physics_newtonian__length&#45;&gt;physics_thermodynamics__length</title>
<path fill="none" stroke="#555555" d="M73.89,-427.57C73.03,-523.84 73.65,-973.5 158.25,-1076.38 168.99,-1089.44 186.22,-1096.23 202.08,-1099.74"/>
<polygon fill="#555555" stroke="#555555" points="201.32,-1103.16 211.78,-1101.49 202.56,-1096.27 201.32,-1103.16"/>
</g>
<!-- physics_acoustics__length -->
<g id="node36" class="node">
<title>physics_acoustics__length</title>
<path fill="#dcfce7" stroke="black" d="M424.38,-427.38C424.38,-427.38 394.38,-427.38 394.38,-427.38 388.38,-427.38 382.38,-421.38 382.38,-415.38 382.38,-415.38 382.38,-403.38 382.38,-403.38 382.38,-397.38 388.38,-391.38 394.38,-391.38 394.38,-391.38 424.38,-391.38 424.38,-391.38 430.38,-391.38 436.38,-397.38 436.38,-403.38 436.38,-403.38 436.38,-415.38 436.38,-415.38 436.38,-421.38 430.38,-427.38 424.38,-427.38"/>
<text xml:space="preserve" text-anchor="middle" x="409.38" y="-404.93" font-family="Helvetica,sans-Serif" font-size="11.00">length</text>
</g>
<!-- physics_newtonian__length&#45;&gt;physics_acoustics__length -->
<g id="edge17" class="edge">
<title>physics_newtonian__length&#45;&gt;physics_acoustics__length</title>
<path fill="none" stroke="#555555" d="M100.35,-409.38C159.3,-409.38 302.42,-409.38 370.8,-409.38"/>
<polygon fill="#555555" stroke="#555555" points="370.76,-412.88 380.76,-409.38 370.76,-405.88 370.76,-412.88"/>
</g>
<!-- physics_newtonian__mass -->
<g id="node3" class="node">
<title>physics_newtonian__mass</title>
<path fill="#dbeafe" stroke="black" d="M88.12,-373.38C88.12,-373.38 58.12,-373.38 58.12,-373.38 52.12,-373.38 46.12,-367.38 46.12,-361.38 46.12,-361.38 46.12,-349.38 46.12,-349.38 46.12,-343.38 52.12,-337.38 58.12,-337.38 58.12,-337.38 88.12,-337.38 88.12,-337.38 94.12,-337.38 100.12,-343.38 100.12,-349.38 100.12,-349.38 100.12,-361.38 100.12,-361.38 100.12,-367.38 94.12,-373.38 88.12,-373.38"/>
<text xml:space="preserve" text-anchor="middle" x="73.12" y="-350.93" font-family="Helvetica,sans-Serif" font-size="11.00">mass</text>
</g>
<!-- physics_thermodynamics__mass -->
<g id="node15" class="node">
<title>physics_thermodynamics__mass</title>
<path fill="#fef3c7" stroke="black" d="M255.75,-905.38C255.75,-905.38 225.75,-905.38 225.75,-905.38 219.75,-905.38 213.75,-899.38 213.75,-893.38 213.75,-893.38 213.75,-881.38 213.75,-881.38 213.75,-875.38 219.75,-869.38 225.75,-869.38 225.75,-869.38 255.75,-869.38 255.75,-869.38 261.75,-869.38 267.75,-875.38 267.75,-881.38 267.75,-881.38 267.75,-893.38 267.75,-893.38 267.75,-899.38 261.75,-905.38 255.75,-905.38"/>
<text xml:space="preserve" text-anchor="middle" x="240.75" y="-882.93" font-family="Helvetica,sans-Serif" font-size="11.00">mass</text>
</g>
<!-- physics_newtonian__mass&#45;&gt;physics_thermodynamics__mass -->
<g id="edge2" class="edge">
<title>physics_newtonian__mass&#45;&gt;physics_thermodynamics__mass</title>
<path fill="none" stroke="#555555" d="M100.55,-359.61C114.15,-363.25 129.64,-369.98 138.25,-382.38 168.57,-426.04 126.23,-817.95 158.25,-860.38 168.68,-874.21 186.43,-881.04 202.71,-884.39"/>
<polygon fill="#555555" stroke="#555555" points="201.7,-887.77 212.14,-885.94 202.84,-880.86 201.7,-887.77"/>
</g>
<!-- physics_acoustics__mass -->
<g id="node37" class="node">
<title>physics_acoustics__mass</title>
<path fill="#dcfce7" stroke="black" d="M424.38,-373.38C424.38,-373.38 394.38,-373.38 394.38,-373.38 388.38,-373.38 382.38,-367.38 382.38,-361.38 382.38,-361.38 382.38,-349.38 382.38,-349.38 382.38,-343.38 388.38,-337.38 394.38,-337.38 394.38,-337.38 424.38,-337.38 424.38,-337.38 430.38,-337.38 436.38,-343.38 436.38,-349.38 436.38,-349.38 436.38,-361.38 436.38,-361.38 436.38,-367.38 430.38,-373.38 424.38,-373.38"/>
<text xml:space="preserve" text-anchor="middle" x="409.38" y="-350.93" font-family="Helvetica,sans-Serif" font-size="11.00">mass</text>
</g>
<!-- physics_newtonian__mass&#45;&gt;physics_acoustics__mass -->
<g id="edge18" class="edge">
<title>physics_newtonian__mass&#45;&gt;physics_acoustics__mass</title>
<path fill="none" stroke="#555555" d="M100.35,-355.38C159.3,-355.38 302.42,-355.38 370.8,-355.38"/>
<polygon fill="#555555" stroke="#555555" points="370.76,-358.88 380.76,-355.38 370.76,-351.88 370.76,-358.88"/>
</g>
<!-- physics_newtonian__newton_second_law -->
<g id="node4" class="node">
<title>physics_newtonian__newton_second_law</title>
<path fill="#dbeafe" stroke="black" d="M118.25,-265.38C118.25,-265.38 28,-265.38 28,-265.38 22,-265.38 16,-259.38 16,-253.38 16,-253.38 16,-241.38 16,-241.38 16,-235.38 22,-229.38 28,-229.38 28,-229.38 118.25,-229.38 118.25,-229.38 124.25,-229.38 130.25,-235.38 130.25,-241.38 130.25,-241.38 130.25,-253.38 130.25,-253.38 130.25,-259.38 124.25,-265.38 118.25,-265.38"/>
<text xml:space="preserve" text-anchor="middle" x="73.12" y="-242.93" font-family="Helvetica,sans-Serif" font-size="11.00">newton_second_law</text>
</g>
<!-- physics_acoustics__newton_second_law -->
<g id="node40" class="node">
<title>physics_acoustics__newton_second_law</title>
<path fill="#dcfce7" stroke="black" d="M454.5,-265.38C454.5,-265.38 364.25,-265.38 364.25,-265.38 358.25,-265.38 352.25,-259.38 352.25,-253.38 352.25,-253.38 352.25,-241.38 352.25,-241.38 352.25,-235.38 358.25,-229.38 364.25,-229.38 364.25,-229.38 454.5,-229.38 454.5,-229.38 460.5,-229.38 466.5,-235.38 466.5,-241.38 466.5,-241.38 466.5,-253.38 466.5,-253.38 466.5,-259.38 460.5,-265.38 454.5,-265.38"/>
<text xml:space="preserve" text-anchor="middle" x="409.38" y="-242.93" font-family="Helvetica,sans-Serif" font-size="11.00">newton_second_law</text>
</g>
<!-- physics_newtonian__newton_second_law&#45;&gt;physics_acoustics__newton_second_law -->
<g id="edge23" class="edge">
<title>physics_newtonian__newton_second_law&#45;&gt;physics_acoustics__newton_second_law</title>
<path fill="none" stroke="#555555" d="M130.45,-247.38C188.42,-247.38 278.77,-247.38 340.62,-247.38"/>
<polygon fill="#555555" stroke="#555555" points="340.31,-250.88 350.31,-247.38 340.31,-243.88 340.31,-250.88"/>
</g>
<!-- physics_newtonian__real_numbers -->
<g id="node5" class="node">
<title>physics_newtonian__real_numbers</title>
<path fill="#dbeafe" stroke="black" d="M102.12,-211.38C102.12,-211.38 44.12,-211.38 44.12,-211.38 38.12,-211.38 32.12,-205.38 32.12,-199.38 32.12,-199.38 32.12,-187.38 32.12,-187.38 32.12,-181.38 38.12,-175.38 44.12,-175.38 44.12,-175.38 102.12,-175.38 102.12,-175.38 108.12,-175.38 114.12,-181.38 114.12,-187.38 114.12,-187.38 114.12,-199.38 114.12,-199.38 114.12,-205.38 108.12,-211.38 102.12,-211.38"/>
<text xml:space="preserve" text-anchor="middle" x="73.12" y="-188.93" font-family="Helvetica,sans-Serif" font-size="11.00">real_numbers</text>
</g>
<!-- physics_thermodynamics__real_numbers -->
<g id="node17" class="node">
<title>physics_thermodynamics__real_numbers</title>
<path fill="#fef3c7" stroke="black" d="M269.75,-851.38C269.75,-851.38 211.75,-851.38 211.75,-851.38 205.75,-851.38 199.75,-845.38 199.75,-839.38 199.75,-839.38 199.75,-827.38 199.75,-827.38 199.75,-821.38 205.75,-815.38 211.75,-815.38 211.75,-815.38 269.75,-815.38 269.75,-815.38 275.75,-815.38 281.75,-821.38 281.75,-827.38 281.75,-827.38 281.75,-839.38 281.75,-839.38 281.75,-845.38 275.75,-851.38 269.75,-851.38"/>
<text xml:space="preserve" text-anchor="middle" x="240.75" y="-828.93" font-family="Helvetica,sans-Serif" font-size="11.00">real_numbers</text>
</g>
<!-- physics_newtonian__real_numbers&#45;&gt;physics_thermodynamics__real_numbers -->
<g id="edge4" class="edge">
<title>physics_newtonian__real_numbers&#45;&gt;physics_thermodynamics__real_numbers</title>
<path fill="none" stroke="#555555" d="M114.61,-202.4C123.82,-206.38 132.56,-212.12 138.25,-220.38 175.21,-274.03 119.21,-754.22 158.25,-806.38 165.7,-816.34 176.96,-822.68 188.74,-826.69"/>
<polygon fill="#555555" stroke="#555555" points="187.59,-830 198.17,-829.35 189.49,-823.27 187.59,-830"/>
</g>
<!-- physics_thermoacoustics__real_numbers -->
<g id="node26" class="node">
<title>physics_thermoacoustics__real_numbers</title>
<path fill="#fee2e2" stroke="black" d="M605.25,-590.38C605.25,-590.38 547.25,-590.38 547.25,-590.38 541.25,-590.38 535.25,-584.38 535.25,-578.38 535.25,-578.38 535.25,-566.38 535.25,-566.38 535.25,-560.38 541.25,-554.38 547.25,-554.38 547.25,-554.38 605.25,-554.38 605.25,-554.38 611.25,-554.38 617.25,-560.38 617.25,-566.38 617.25,-566.38 617.25,-578.38 617.25,-578.38 617.25,-584.38 611.25,-590.38 605.25,-590.38"/>
<text xml:space="preserve" text-anchor="middle" x="576.25" y="-567.93" font-family="Helvetica,sans-Serif" font-size="11.00">real_numbers</text>
</g>
<!-- physics_newtonian__real_numbers&#45;&gt;physics_thermoacoustics__real_numbers -->
<g id="edge6" class="edge">
<title>physics_newtonian__real_numbers&#45;&gt;physics_thermoacoustics__real_numbers</title>
<path fill="none" stroke="#555555" d="M114.59,-176.62C122.46,-173.28 130.63,-169.76 138.25,-166.38 230.59,-125.44 245.63,-92.23 344.25,-70.38 400.77,-57.86 432.71,-30.32 474.5,-70.38 512.63,-106.94 462.74,-503.17 494.5,-545.38 501.77,-555.05 512.65,-561.29 524.08,-565.32"/>
<polygon fill="#555555" stroke="#555555" points="523.08,-568.67 533.66,-568.11 525.04,-561.95 523.08,-568.67"/>
</g>
<!-- physics_acoustics__real_numbers -->
<g id="node41" class="node">
<title>physics_acoustics__real_numbers</title>
<path fill="#dcfce7" stroke="black" d="M438.38,-211.38C438.38,-211.38 380.38,-211.38 380.38,-211.38 374.38,-211.38 368.38,-205.38 368.38,-199.38 368.38,-199.38 368.38,-187.38 368.38,-187.38 368.38,-181.38 374.38,-175.38 380.38,-175.38 380.38,-175.38 438.38,-175.38 438.38,-175.38 444.38,-175.38 450.38,-181.38 450.38,-187.38 450.38,-187.38 450.38,-199.38 450.38,-199.38 450.38,-205.38 444.38,-211.38 438.38,-211.38"/>
<text xml:space="preserve" text-anchor="middle" x="409.38" y="-188.93" font-family="Helvetica,sans-Serif" font-size="11.00">real_numbers</text>
</g>
<!-- physics_newtonian__real_numbers&#45;&gt;physics_acoustics__real_numbers -->
<g id="edge16" class="edge">
<title>physics_newtonian__real_numbers&#45;&gt;physics_acoustics__real_numbers</title>
<path fill="none" stroke="#555555" d="M114.44,-193.38C175.05,-193.38 289.63,-193.38 356.42,-193.38"/>
<polygon fill="#555555" stroke="#555555" points="356.4,-196.88 366.4,-193.38 356.4,-189.88 356.4,-196.88"/>
</g>
<!-- physics_newtonian__time -->
<g id="node6" class="node">
<title>physics_newtonian__time</title>
<path fill="#dbeafe" stroke="black" d="M88.12,-157.38C88.12,-157.38 58.12,-157.38 58.12,-157.38 52.12,-157.38 46.12,-151.38 46.12,-145.38 46.12,-145.38 46.12,-133.38 46.12,-133.38 46.12,-127.38 52.12,-121.38 58.12,-121.38 58.12,-121.38 88.12,-121.38 88.12,-121.38 94.12,-121.38 100.12,-127.38 100.12,-133.38 100.12,-133.38 100.12,-145.38 100.12,-145.38 100.12,-151.38 94.12,-157.38 88.12,-157.38"/>
<text xml:space="preserve" text-anchor="middle" x="73.12" y="-134.93" font-family="Helvetica,sans-Serif" font-size="11.00">time</text>
</g>
<!-- physics_thermodynamics__time -->
<g id="node19" class="node">
<title>physics_thermodynamics__time</title>
<path fill="#fef3c7" stroke="black" d="M255.75,-473.38C255.75,-473.38 225.75,-473.38 225.75,-473.38 219.75,-473.38 213.75,-467.38 213.75,-461.38 213.75,-461.38 213.75,-449.38 213.75,-449.38 213.75,-443.38 219.75,-437.38 225.75,-437.38 225.75,-437.38 255.75,-437.38 255.75,-437.38 261.75,-437.38 267.75,-443.38 267.75,-449.38 267.75,-449.38 267.75,-461.38 267.75,-461.38 267.75,-467.38 261.75,-473.38 255.75,-473.38"/>
<text xml:space="preserve" text-anchor="middle" x="240.75" y="-450.93" font-family="Helvetica,sans-Serif" font-size="11.00">time</text>
</g>
<!-- physics_newtonian__time&#45;&gt;physics_thermodynamics__time -->
<g id="edge3" class="edge">
<title>physics_newtonian__time&#45;&gt;physics_thermodynamics__time</title>
<path fill="none" stroke="#555555" d="M100.46,-145.11C113.36,-149.12 128.23,-155.74 138.25,-166.38 208.87,-241.43 230.74,-368.45 237.19,-425.77"/>
<polygon fill="#555555" stroke="#555555" points="233.71,-426.12 238.22,-435.7 240.67,-425.39 233.71,-426.12"/>
</g>
<!-- physics_thermoacoustics__time -->
<g id="node30" class="node">
<title>physics_thermoacoustics__time</title>
<path fill="#fee2e2" stroke="black" d="M591.25,-536.38C591.25,-536.38 561.25,-536.38 561.25,-536.38 555.25,-536.38 549.25,-530.38 549.25,-524.38 549.25,-524.38 549.25,-512.38 549.25,-512.38 549.25,-506.38 555.25,-500.38 561.25,-500.38 561.25,-500.38 591.25,-500.38 591.25,-500.38 597.25,-500.38 603.25,-506.38 603.25,-512.38 603.25,-512.38 603.25,-524.38 603.25,-524.38 603.25,-530.38 597.25,-536.38 591.25,-536.38"/>
<text xml:space="preserve" text-anchor="middle" x="576.25" y="-513.93" font-family="Helvetica,sans-Serif" font-size="11.00">time</text>
</g>
<!-- physics_newtonian__time&#45;&gt;physics_thermoacoustics__time -->
<g id="edge8" class="edge">
<title>physics_newtonian__time&#45;&gt;physics_thermoacoustics__time</title>
<path fill="none" stroke="#555555" d="M91.29,-121.08C107.1,-105.44 132.03,-83.73 158.25,-72.38 287.72,-16.36 364.85,43.37 474.5,-45.38 544.29,-101.87 567.79,-394.11 573.63,-488.76"/>
<polygon fill="#555555" stroke="#555555" points="570.13,-488.75 574.21,-498.52 577.11,-488.33 570.13,-488.75"/>
</g>
<!-- physics_acoustics__time -->
<g id="node43" class="node">
<title>physics_acoustics__time</title>
<path fill="#dcfce7" stroke="black" d="M424.38,-157.38C424.38,-157.38 394.38,-157.38 394.38,-157.38 388.38,-157.38 382.38,-151.38 382.38,-145.38 382.38,-145.38 382.38,-133.38 382.38,-133.38 382.38,-127.38 388.38,-121.38 394.38,-121.38 394.38,-121.38 424.38,-121.38 424.38,-121.38 430.38,-121.38 436.38,-127.38 436.38,-133.38 436.38,-133.38 436.38,-145.38 436.38,-145.38 436.38,-151.38 430.38,-157.38 424.38,-157.38"/>
<text xml:space="preserve" text-anchor="middle" x="409.38" y="-134.93" font-family="Helvetica,sans-Serif" font-size="11.00">time</text>
</g>
<!-- physics_newtonian__time&#45;&gt;physics_acoustics__time -->
<g id="edge19" class="edge">
<title>physics_newtonian__time&#45;&gt;physics_acoustics__time</title>
<path fill="none" stroke="#555555" d="M100.35,-139.38C159.3,-139.38 302.42,-139.38 370.8,-139.38"/>
<polygon fill="#555555" stroke="#555555" points="370.76,-142.88 380.76,-139.38 370.76,-135.88 370.76,-142.88"/>
</g>
<!-- physics_thermodynamics__first_law_thermodynamics -->
<g id="node8" class="node">
<title>physics_thermodynamics__first_law_thermodynamics</title>
<path fill="#fef3c7" stroke="black" d="M299,-1067.38C299,-1067.38 182.5,-1067.38 182.5,-1067.38 176.5,-1067.38 170.5,-1061.38 170.5,-1055.38 170.5,-1055.38 170.5,-1043.38 170.5,-1043.38 170.5,-1037.38 176.5,-1031.38 182.5,-1031.38 182.5,-1031.38 299,-1031.38 299,-1031.38 305,-1031.38 311,-1037.38 311,-1043.38 311,-1043.38 311,-1055.38 311,-1055.38 311,-1061.38 305,-1067.38 299,-1067.38"/>
<text xml:space="preserve" text-anchor="middle" x="240.75" y="-1044.93" font-family="Helvetica,sans-Serif" font-size="11.00">first_law_thermodynamics</text>
</g>
<!-- physics_thermoacoustics__first_law_thermodynamics -->
<g id="node21" class="node">
<title>physics_thermoacoustics__first_law_thermodynamics</title>
<path fill="#fee2e2" stroke="black" d="M634.5,-1130.38C634.5,-1130.38 518,-1130.38 518,-1130.38 512,-1130.38 506,-1124.38 506,-1118.38 506,-1118.38 506,-1106.38 506,-1106.38 506,-1100.38 512,-1094.38 518,-1094.38 518,-1094.38 634.5,-1094.38 634.5,-1094.38 640.5,-1094.38 646.5,-1100.38 646.5,-1106.38 646.5,-1106.38 646.5,-1118.38 646.5,-1118.38 646.5,-1124.38 640.5,-1130.38 634.5,-1130.38"/>
<text xml:space="preserve" text-anchor="middle" x="576.25" y="-1107.93" font-family="Helvetica,sans-Serif" font-size="11.00">first_law_thermodynamics</text>
</g>
<!-- physics_thermodynamics__first_law_thermodynamics&#45;&gt;physics_thermoacoustics__first_law_thermodynamics -->
<g id="edge13" class="edge">
<title>physics_thermodynamics__first_law_thermodynamics&#45;&gt;physics_thermoacoustics__first_law_thermodynamics</title>
<path fill="none" stroke="#555555" d="M311.26,-1062.51C364.57,-1072.58 438.26,-1086.5 494.24,-1097.08"/>
<polygon fill="#555555" stroke="#555555" points="493.58,-1100.52 504.06,-1098.93 494.88,-1093.64 493.58,-1100.52"/>
</g>
<!-- physics_thermodynamics__gas_constant -->
<g id="node9" class="node">
<title>physics_thermodynamics__gas_constant</title>
<path fill="#fef3c7" stroke="black" d="M268.62,-743.38C268.62,-743.38 212.88,-743.38 212.88,-743.38 206.88,-743.38 200.88,-737.38 200.88,-731.38 200.88,-731.38 200.88,-719.38 200.88,-719.38 200.88,-713.38 206.88,-707.38 212.88,-707.38 212.88,-707.38 268.62,-707.38 268.62,-707.38 274.62,-707.38 280.62,-713.38 280.62,-719.38 280.62,-719.38 280.62,-731.38 280.62,-731.38 280.62,-737.38 274.62,-743.38 268.62,-743.38"/>
<text xml:space="preserve" text-anchor="middle" x="240.75" y="-720.93" font-family="Helvetica,sans-Serif" font-size="11.00">gas_constant</text>
</g>
<!-- physics_thermoacoustics__gas_constant_specific -->
<g id="node22" class="node">
<title>physics_thermoacoustics__gas_constant_specific</title>
<path fill="#fee2e2" stroke="black" d="M624.75,-968.38C624.75,-968.38 527.75,-968.38 527.75,-968.38 521.75,-968.38 515.75,-962.38 515.75,-956.38 515.75,-956.38 515.75,-944.38 515.75,-944.38 515.75,-938.38 521.75,-932.38 527.75,-932.38 527.75,-932.38 624.75,-932.38 624.75,-932.38 630.75,-932.38 636.75,-938.38 636.75,-944.38 636.75,-944.38 636.75,-956.38 636.75,-956.38 636.75,-962.38 630.75,-968.38 624.75,-968.38"/>
<text xml:space="preserve" text-anchor="middle" x="576.25" y="-945.93" font-family="Helvetica,sans-Serif" font-size="11.00">gas_constant_specific</text>
</g>
<!-- physics_thermodynamics__gas_constant&#45;&gt;physics_thermoacoustics__gas_constant_specific -->
<g id="edge10" class="edge">
<title>physics_thermodynamics__gas_constant&#45;&gt;physics_thermoacoustics__gas_constant_specific</title>
<path fill="none" stroke="#555555" d="M280.99,-729.08C296.76,-732.62 313.68,-739.42 324.25,-752.38 373.73,-813.05 288.49,-872.43 344.25,-927.38 385.28,-967.82 452.51,-970.27 503.89,-964.55"/>
<polygon fill="#555555" stroke="#555555" points="504.27,-968.03 513.75,-963.31 503.4,-961.08 504.27,-968.03"/>
</g>
<!-- physics_acoustics__gas_constant -->
<g id="node33" class="node">
<title>physics_acoustics__gas_constant</title>
<path fill="#dcfce7" stroke="black" d="M437.25,-751.38C437.25,-751.38 381.5,-751.38 381.5,-751.38 375.5,-751.38 369.5,-745.38 369.5,-739.38 369.5,-739.38 369.5,-727.38 369.5,-727.38 369.5,-721.38 375.5,-715.38 381.5,-715.38 381.5,-715.38 437.25,-715.38 437.25,-715.38 443.25,-715.38 449.25,-721.38 449.25,-727.38 449.25,-727.38 449.25,-739.38 449.25,-739.38 449.25,-745.38 443.25,-751.38 437.25,-751.38"/>
<text xml:space="preserve" text-anchor="middle" x="409.38" y="-728.93" font-family="Helvetica,sans-Serif" font-size="11.00">gas_constant</text>
</g>
<!-- physics_thermodynamics__gas_constant&#45;&gt;physics_acoustics__gas_constant -->
<g id="edge21" class="edge">
<title>physics_thermodynamics__gas_constant&#45;&gt;physics_acoustics__gas_constant</title>
<path fill="none" stroke="#555555" d="M280.82,-727.26C303.82,-728.36 333.16,-729.77 357.9,-730.96"/>
<polygon fill="#555555" stroke="#555555" points="357.6,-734.45 367.75,-731.43 357.93,-727.46 357.6,-734.45"/>
</g>
<!-- physics_thermodynamics__heat_capacity_cp -->
<g id="node10" class="node">
<title>physics_thermodynamics__heat_capacity_cp</title>
<path fill="#fef3c7" stroke="black" d="M278.38,-959.38C278.38,-959.38 203.12,-959.38 203.12,-959.38 197.12,-959.38 191.12,-953.38 191.12,-947.38 191.12,-947.38 191.12,-935.38 191.12,-935.38 191.12,-929.38 197.12,-923.38 203.12,-923.38 203.12,-923.38 278.38,-923.38 278.38,-923.38 284.38,-923.38 290.38,-929.38 290.38,-935.38 290.38,-935.38 290.38,-947.38 290.38,-947.38 290.38,-953.38 284.38,-959.38 278.38,-959.38"/>
<text xml:space="preserve" text-anchor="middle" x="240.75" y="-936.93" font-family="Helvetica,sans-Serif" font-size="11.00">heat_capacity_cp</text>
</g>
<!-- physics_thermoacoustics__specific_heat_cp -->
<g id="node28" class="node">
<title>physics_thermoacoustics__specific_heat_cp</title>
<path fill="#fee2e2" stroke="black" d="M612,-1076.38C612,-1076.38 540.5,-1076.38 540.5,-1076.38 534.5,-1076.38 528.5,-1070.38 528.5,-1064.38 528.5,-1064.38 528.5,-1052.38 528.5,-1052.38 528.5,-1046.38 534.5,-1040.38 540.5,-1040.38 540.5,-1040.38 612,-1040.38 612,-1040.38 618,-1040.38 624,-1046.38 624,-1052.38 624,-1052.38 624,-1064.38 624,-1064.38 624,-1070.38 618,-1076.38 612,-1076.38"/>
<text xml:space="preserve" text-anchor="middle" x="576.25" y="-1053.93" font-family="Helvetica,sans-Serif" font-size="11.00">specific_heat_cp</text>
</g>
<!-- physics_thermodynamics__heat_capacity_cp&#45;&gt;physics_thermoacoustics__specific_heat_cp -->
<g id="edge12" class="edge">
<title>physics_thermodynamics__heat_capacity_cp&#45;&gt;physics_thermoacoustics__specific_heat_cp</title>
<path fill="none" stroke="#555555" d="M290.58,-949.62C302.75,-953.62 314.96,-959.56 324.25,-968.38 342.2,-985.44 325.05,-1004.75 344.25,-1020.38 392.5,-1059.66 465.64,-1065.55 516.65,-1063.94"/>
<polygon fill="#555555" stroke="#555555" points="516.8,-1067.44 526.64,-1063.51 516.49,-1060.45 516.8,-1067.44"/>
</g>
<!-- physics_thermodynamics__heat_capacity_cv -->
<g id="node11" class="node">
<title>physics_thermodynamics__heat_capacity_cv</title>
<path fill="#fef3c7" stroke="black" d="M278,-797.38C278,-797.38 203.5,-797.38 203.5,-797.38 197.5,-797.38 191.5,-791.38 191.5,-785.38 191.5,-785.38 191.5,-773.38 191.5,-773.38 191.5,-767.38 197.5,-761.38 203.5,-761.38 203.5,-761.38 278,-761.38 278,-761.38 284,-761.38 290,-767.38 290,-773.38 290,-773.38 290,-785.38 290,-785.38 290,-791.38 284,-797.38 278,-797.38"/>
<text xml:space="preserve" text-anchor="middle" x="240.75" y="-774.93" font-family="Helvetica,sans-Serif" font-size="11.00">heat_capacity_cv</text>
</g>
<!-- physics_thermoacoustics__specific_heat_cv -->
<g id="node29" class="node">
<title>physics_thermoacoustics__specific_heat_cv</title>
<path fill="#fee2e2" stroke="black" d="M611.62,-1022.38C611.62,-1022.38 540.88,-1022.38 540.88,-1022.38 534.88,-1022.38 528.88,-1016.38 528.88,-1010.38 528.88,-1010.38 528.88,-998.38 528.88,-998.38 528.88,-992.38 534.88,-986.38 540.88,-986.38 540.88,-986.38 611.62,-986.38 611.62,-986.38 617.62,-986.38 623.62,-992.38 623.62,-998.38 623.62,-998.38 623.62,-1010.38 623.62,-1010.38 623.62,-1016.38 617.62,-1022.38 611.62,-1022.38"/>
<text xml:space="preserve" text-anchor="middle" x="576.25" y="-999.93" font-family="Helvetica,sans-Serif" font-size="11.00">specific_heat_cv</text>
</g>
<!-- physics_thermodynamics__heat_capacity_cv&#45;&gt;physics_thermoacoustics__specific_heat_cv -->
<g id="edge11" class="edge">
<title>physics_thermodynamics__heat_capacity_cv&#45;&gt;physics_thermoacoustics__specific_heat_cv</title>
<path fill="none" stroke="#555555" d="M290.35,-785.67C303.12,-789.64 315.7,-796.05 324.25,-806.38 368.54,-859.89 296.52,-910.92 344.25,-961.38 388.12,-1007.77 464.7,-1013.51 517.58,-1010.96"/>
<polygon fill="#555555" stroke="#555555" points="517.54,-1014.47 527.31,-1010.37 517.12,-1007.48 517.54,-1014.47"/>
</g>
<!-- physics_thermodynamics__heat_capacity_ratio -->
<g id="node12" class="node">
<title>physics_thermodynamics__heat_capacity_ratio</title>
<path fill="#fef3c7" stroke="black" d="M283.25,-527.38C283.25,-527.38 198.25,-527.38 198.25,-527.38 192.25,-527.38 186.25,-521.38 186.25,-515.38 186.25,-515.38 186.25,-503.38 186.25,-503.38 186.25,-497.38 192.25,-491.38 198.25,-491.38 198.25,-491.38 283.25,-491.38 283.25,-491.38 289.25,-491.38 295.25,-497.38 295.25,-503.38 295.25,-503.38 295.25,-515.38 295.25,-515.38 295.25,-521.38 289.25,-527.38 283.25,-527.38"/>
<text xml:space="preserve" text-anchor="middle" x="240.75" y="-504.93" font-family="Helvetica,sans-Serif" font-size="11.00">heat_capacity_ratio</text>
</g>
<!-- physics_acoustics__heat_capacity_ratio -->
<g id="node34" class="node">
<title>physics_acoustics__heat_capacity_ratio</title>
<path fill="#dcfce7" stroke="black" d="M451.88,-481.38C451.88,-481.38 366.88,-481.38 366.88,-481.38 360.88,-481.38 354.88,-475.38 354.88,-469.38 354.88,-469.38 354.88,-457.38 354.88,-457.38 354.88,-451.38 360.88,-445.38 366.88,-445.38 366.88,-445.38 451.88,-445.38 451.88,-445.38 457.88,-445.38 463.88,-451.38 463.88,-457.38 463.88,-457.38 463.88,-469.38 463.88,-469.38 463.88,-475.38 457.88,-481.38 451.88,-481.38"/>
<text xml:space="preserve" text-anchor="middle" x="409.38" y="-458.93" font-family="Helvetica,sans-Serif" font-size="11.00">heat_capacity_ratio</text>
</g>
<!-- physics_thermodynamics__heat_capacity_ratio&#45;&gt;physics_acoustics__heat_capacity_ratio -->
<g id="edge22" class="edge">
<title>physics_thermodynamics__heat_capacity_ratio&#45;&gt;physics_acoustics__heat_capacity_ratio</title>
<path fill="none" stroke="#555555" d="M295.39,-494.57C310.77,-490.33 327.71,-485.65 343.68,-481.24"/>
<polygon fill="#555555" stroke="#555555" points="344.38,-484.68 353.09,-478.64 342.52,-477.93 344.38,-484.68"/>
</g>
<!-- physics_thermodynamics__ideal_gas_law -->
<g id="node13" class="node">
<title>physics_thermodynamics__ideal_gas_law</title>
<path fill="#fef3c7" stroke="black" d="M270.88,-689.38C270.88,-689.38 210.62,-689.38 210.62,-689.38 204.62,-689.38 198.62,-683.38 198.62,-677.38 198.62,-677.38 198.62,-665.38 198.62,-665.38 198.62,-659.38 204.62,-653.38 210.62,-653.38 210.62,-653.38 270.88,-653.38 270.88,-653.38 276.88,-653.38 282.88,-659.38 282.88,-665.38 282.88,-665.38 282.88,-677.38 282.88,-677.38 282.88,-683.38 276.88,-689.38 270.88,-689.38"/>
<text xml:space="preserve" text-anchor="middle" x="240.75" y="-666.93" font-family="Helvetica,sans-Serif" font-size="11.00">ideal_gas_law</text>
</g>
<!-- physics_thermoacoustics__ideal_gas -->
<g id="node23" class="node">
<title>physics_thermoacoustics__ideal_gas</title>
<path fill="#fee2e2" stroke="black" d="M595.12,-914.38C595.12,-914.38 557.38,-914.38 557.38,-914.38 551.38,-914.38 545.38,-908.38 545.38,-902.38 545.38,-902.38 545.38,-890.38 545.38,-890.38 545.38,-884.38 551.38,-878.38 557.38,-878.38 557.38,-878.38 595.12,-878.38 595.12,-878.38 601.12,-878.38 607.12,-884.38 607.12,-890.38 607.12,-890.38 607.12,-902.38 607.12,-902.38 607.12,-908.38 601.12,-914.38 595.12,-914.38"/>
<text xml:space="preserve" text-anchor="middle" x="576.25" y="-891.93" font-family="Helvetica,sans-Serif" font-size="11.00">ideal_gas</text>
</g>
<!-- physics_thermodynamics__ideal_gas_law&#45;&gt;physics_thermoacoustics__ideal_gas -->
<g id="edge9" class="edge">
<title>physics_thermodynamics__ideal_gas_law&#45;&gt;physics_thermoacoustics__ideal_gas</title>
<path fill="none" stroke="#555555" d="M283.25,-675.48C298.4,-679.14 314.27,-685.91 324.25,-698.38 353.27,-734.63 309.88,-875.16 344.25,-906.38 371.06,-930.74 474.87,-915.78 533.79,-904.84"/>
<polygon fill="#555555" stroke="#555555" points="534.29,-908.31 543.45,-903 532.98,-901.43 534.29,-908.31"/>
</g>
<!-- physics_acoustics__ideal_gas_law -->
<g id="node35" class="node">
<title>physics_acoustics__ideal_gas_law</title>
<path fill="#dcfce7" stroke="black" d="M439.5,-643.38C439.5,-643.38 379.25,-643.38 379.25,-643.38 373.25,-643.38 367.25,-637.38 367.25,-631.38 367.25,-631.38 367.25,-619.38 367.25,-619.38 367.25,-613.38 373.25,-607.38 379.25,-607.38 379.25,-607.38 439.5,-607.38 439.5,-607.38 445.5,-607.38 451.5,-613.38 451.5,-619.38 451.5,-619.38 451.5,-631.38 451.5,-631.38 451.5,-637.38 445.5,-643.38 439.5,-643.38"/>
<text xml:space="preserve" text-anchor="middle" x="409.38" y="-620.93" font-family="Helvetica,sans-Serif" font-size="11.00">ideal_gas_law</text>
</g>
<!-- physics_thermodynamics__ideal_gas_law&#45;&gt;physics_acoustics__ideal_gas_law -->
<g id="edge24" class="edge">
<title>physics_thermodynamics__ideal_gas_law&#45;&gt;physics_acoustics__ideal_gas_law</title>
<path fill="none" stroke="#555555" d="M283.37,-659.89C305.42,-653.8 332.72,-646.27 356.18,-639.79"/>
<polygon fill="#555555" stroke="#555555" points="356.83,-643.24 365.54,-637.21 354.97,-636.49 356.83,-643.24"/>
</g>
<!-- physics_thermodynamics__pressure -->
<g id="node16" class="node">
<title>physics_thermodynamics__pressure</title>
<path fill="#fef3c7" stroke="black" d="M257.75,-635.38C257.75,-635.38 223.75,-635.38 223.75,-635.38 217.75,-635.38 211.75,-629.38 211.75,-623.38 211.75,-623.38 211.75,-611.38 211.75,-611.38 211.75,-605.38 217.75,-599.38 223.75,-599.38 223.75,-599.38 257.75,-599.38 257.75,-599.38 263.75,-599.38 269.75,-605.38 269.75,-611.38 269.75,-611.38 269.75,-623.38 269.75,-623.38 269.75,-629.38 263.75,-635.38 257.75,-635.38"/>
<text xml:space="preserve" text-anchor="middle" x="240.75" y="-612.93" font-family="Helvetica,sans-Serif" font-size="11.00">pressure</text>
</g>
<!-- physics_thermoacoustics__mean_pressure -->
<g id="node24" class="node">
<title>physics_thermoacoustics__mean_pressure</title>
<path fill="#fee2e2" stroke="black" d="M609.75,-860.38C609.75,-860.38 542.75,-860.38 542.75,-860.38 536.75,-860.38 530.75,-854.38 530.75,-848.38 530.75,-848.38 530.75,-836.38 530.75,-836.38 530.75,-830.38 536.75,-824.38 542.75,-824.38 542.75,-824.38 609.75,-824.38 609.75,-824.38 615.75,-824.38 621.75,-830.38 621.75,-836.38 621.75,-836.38 621.75,-848.38 621.75,-848.38 621.75,-854.38 615.75,-860.38 609.75,-860.38"/>
<text xml:space="preserve" text-anchor="middle" x="576.25" y="-837.93" font-family="Helvetica,sans-Serif" font-size="11.00">mean_pressure</text>
</g>
<!-- physics_thermodynamics__pressure&#45;&gt;physics_thermoacoustics__mean_pressure -->
<g id="edge15" class="edge">
<title>physics_thermodynamics__pressure&#45;&gt;physics_thermoacoustics__mean_pressure</title>
<path fill="none" stroke="#555555" d="M269.92,-618.93C288.34,-621.53 311.3,-628.11 324.25,-644.38 355.09,-683.14 307.69,-832.96 344.25,-866.38 369.05,-889.04 459.43,-872.04 519.51,-857.4"/>
<polygon fill="#555555" stroke="#555555" points="520.03,-860.88 528.89,-855.07 518.34,-854.09 520.03,-860.88"/>
</g>
<!-- physics_acoustics__mean_pressure -->
<g id="node38" class="node">
<title>physics_acoustics__mean_pressure</title>
<path fill="#dcfce7" stroke="black" d="M442.88,-589.38C442.88,-589.38 375.88,-589.38 375.88,-589.38 369.88,-589.38 363.88,-583.38 363.88,-577.38 363.88,-577.38 363.88,-565.38 363.88,-565.38 363.88,-559.38 369.88,-553.38 375.88,-553.38 375.88,-553.38 442.88,-553.38 442.88,-553.38 448.88,-553.38 454.88,-559.38 454.88,-565.38 454.88,-565.38 454.88,-577.38 454.88,-577.38 454.88,-583.38 448.88,-589.38 442.88,-589.38"/>
<text xml:space="preserve" text-anchor="middle" x="409.38" y="-566.93" font-family="Helvetica,sans-Serif" font-size="11.00">mean_pressure</text>
</g>
<!-- physics_thermodynamics__pressure&#45;&gt;physics_acoustics__mean_pressure -->
<g id="edge25" class="edge">
<title>physics_thermodynamics__pressure&#45;&gt;physics_acoustics__mean_pressure</title>
<path fill="none" stroke="#555555" d="M270.02,-609.58C292.64,-603.33 325.06,-594.38 352.84,-586.71"/>
<polygon fill="#555555" stroke="#555555" points="353.45,-590.17 362.16,-584.14 351.59,-583.43 353.45,-590.17"/>
</g>
<!-- physics_thermodynamics__temperature -->
<g id="node18" class="node">
<title>physics_thermodynamics__temperature</title>
<path fill="#fef3c7" stroke="black" d="M266,-581.38C266,-581.38 215.5,-581.38 215.5,-581.38 209.5,-581.38 203.5,-575.38 203.5,-569.38 203.5,-569.38 203.5,-557.38 203.5,-557.38 203.5,-551.38 209.5,-545.38 215.5,-545.38 215.5,-545.38 266,-545.38 266,-545.38 272,-545.38 278,-551.38 278,-557.38 278,-557.38 278,-569.38 278,-569.38 278,-575.38 272,-581.38 266,-581.38"/>
<text xml:space="preserve" text-anchor="middle" x="240.75" y="-558.93" font-family="Helvetica,sans-Serif" font-size="11.00">temperature</text>
</g>
<!-- physics_thermoacoustics__mean_temperature -->
<g id="node25" class="node">
<title>physics_thermoacoustics__mean_temperature</title>
<path fill="#fee2e2" stroke="black" d="M618,-806.38C618,-806.38 534.5,-806.38 534.5,-806.38 528.5,-806.38 522.5,-800.38 522.5,-794.38 522.5,-794.38 522.5,-782.38 522.5,-782.38 522.5,-776.38 528.5,-770.38 534.5,-770.38 534.5,-770.38 618,-770.38 618,-770.38 624,-770.38 630,-776.38 630,-782.38 630,-782.38 630,-794.38 630,-794.38 630,-800.38 624,-806.38 618,-806.38"/>
<text xml:space="preserve" text-anchor="middle" x="576.25" y="-783.93" font-family="Helvetica,sans-Serif" font-size="11.00">mean_temperature</text>
</g>
<!-- physics_thermodynamics__temperature&#45;&gt;physics_thermoacoustics__mean_temperature -->
<g id="edge14" class="edge">
<title>physics_thermodynamics__temperature&#45;&gt;physics_thermoacoustics__mean_temperature</title>
<path fill="none" stroke="#555555" d="M278.23,-566.28C294.86,-569.58 313.25,-576.41 324.25,-590.38 358.74,-634.16 303.3,-802.58 344.25,-840.38 386.78,-879.65 422.32,-865.46 474.5,-840.38 487.32,-834.22 482.83,-823.53 494.5,-815.38 499.86,-811.64 505.77,-808.39 511.89,-805.56"/>
<polygon fill="#555555" stroke="#555555" points="513.05,-808.88 520.93,-801.79 510.35,-802.42 513.05,-808.88"/>
</g>
<!-- physics_acoustics__mean_temperature -->
<g id="node39" class="node">
<title>physics_acoustics__mean_temperature</title>
<path fill="#dcfce7" stroke="black" d="M451.12,-535.38C451.12,-535.38 367.62,-535.38 367.62,-535.38 361.62,-535.38 355.62,-529.38 355.62,-523.38 355.62,-523.38 355.62,-511.38 355.62,-511.38 355.62,-505.38 361.62,-499.38 367.62,-499.38 367.62,-499.38 451.12,-499.38 451.12,-499.38 457.12,-499.38 463.12,-505.38 463.12,-511.38 463.12,-511.38 463.12,-523.38 463.12,-523.38 463.12,-529.38 457.12,-535.38 451.12,-535.38"/>
<text xml:space="preserve" text-anchor="middle" x="409.38" y="-512.93" font-family="Helvetica,sans-Serif" font-size="11.00">mean_temperature</text>
</g>
<!-- physics_thermodynamics__temperature&#45;&gt;physics_acoustics__mean_temperature -->
<g id="edge26" class="edge">
<title>physics_thermodynamics__temperature&#45;&gt;physics_acoustics__mean_temperature</title>
<path fill="none" stroke="#555555" d="M278.32,-553.29C297.58,-547.97 321.76,-541.29 344.04,-535.14"/>
<polygon fill="#555555" stroke="#555555" points="344.96,-538.52 353.67,-532.48 343.1,-531.77 344.96,-538.52"/>
</g>
<!-- physics_thermoacoustics__small_amplitude -->
<g id="node27" class="node">
<title>physics_thermoacoustics__small_amplitude</title>
<path fill="#fee2e2" stroke="black" d="M610.88,-752.38C610.88,-752.38 541.62,-752.38 541.62,-752.38 535.62,-752.38 529.62,-746.38 529.62,-740.38 529.62,-740.38 529.62,-728.38 529.62,-728.38 529.62,-722.38 535.62,-716.38 541.62,-716.38 541.62,-716.38 610.88,-716.38 610.88,-716.38 616.88,-716.38 622.88,-722.38 622.88,-728.38 622.88,-728.38 622.88,-740.38 622.88,-740.38 622.88,-746.38 616.88,-752.38 610.88,-752.38"/>
<text xml:space="preserve" text-anchor="middle" x="576.25" y="-729.93" font-family="Helvetica,sans-Serif" font-size="11.00">small_amplitude</text>
</g>
<!-- physics_thermoacoustics__time_harmonic -->
<g id="node31" class="node">
<title>physics_thermoacoustics__time_harmonic</title>
<path fill="#fee2e2" stroke="black" d="M607.5,-698.38C607.5,-698.38 545,-698.38 545,-698.38 539,-698.38 533,-692.38 533,-686.38 533,-686.38 533,-674.38 533,-674.38 533,-668.38 539,-662.38 545,-662.38 545,-662.38 607.5,-662.38 607.5,-662.38 613.5,-662.38 619.5,-668.38 619.5,-674.38 619.5,-674.38 619.5,-686.38 619.5,-686.38 619.5,-692.38 613.5,-698.38 607.5,-698.38"/>
<text xml:space="preserve" text-anchor="middle" x="576.25" y="-675.93" font-family="Helvetica,sans-Serif" font-size="11.00">time_harmonic</text>
</g>
<!-- physics_acoustics__small_amplitude -->
<g id="node42" class="node">
<title>physics_acoustics__small_amplitude</title>
<path fill="#dcfce7" stroke="black" d="M444,-805.38C444,-805.38 374.75,-805.38 374.75,-805.38 368.75,-805.38 362.75,-799.38 362.75,-793.38 362.75,-793.38 362.75,-781.38 362.75,-781.38 362.75,-775.38 368.75,-769.38 374.75,-769.38 374.75,-769.38 444,-769.38 444,-769.38 450,-769.38 456,-775.38 456,-781.38 456,-781.38 456,-793.38 456,-793.38 456,-799.38 450,-805.38 444,-805.38"/>
<text xml:space="preserve" text-anchor="middle" x="409.38" y="-782.93" font-family="Helvetica,sans-Serif" font-size="11.00">small_amplitude</text>
</g>
<!-- physics_acoustics__small_amplitude&#45;&gt;physics_thermoacoustics__small_amplitude -->
<g id="edge27" class="edge">
<title>physics_acoustics__small_amplitude&#45;&gt;physics_thermoacoustics__small_amplitude</title>
<path fill="none" stroke="#555555" d="M456.3,-772.62C475.61,-766.41 498.26,-759.13 518.58,-752.6"/>
<polygon fill="#555555" stroke="#555555" points="519.39,-756.01 527.84,-749.62 517.25,-749.35 519.39,-756.01"/>
</g>
<!-- physics_acoustics__time_harmonic -->
<g id="node44" class="node">
<title>physics_acoustics__time_harmonic</title>
<path fill="#dcfce7" stroke="black" d="M440.62,-697.38C440.62,-697.38 378.12,-697.38 378.12,-697.38 372.12,-697.38 366.12,-691.38 366.12,-685.38 366.12,-685.38 366.12,-673.38 366.12,-673.38 366.12,-667.38 372.12,-661.38 378.12,-661.38 378.12,-661.38 440.62,-661.38 440.62,-661.38 446.62,-661.38 452.62,-667.38 452.62,-673.38 452.62,-673.38 452.62,-685.38 452.62,-685.38 452.62,-691.38 446.62,-697.38 440.62,-697.38"/>
<text xml:space="preserve" text-anchor="middle" x="409.38" y="-674.93" font-family="Helvetica,sans-Serif" font-size="11.00">time_harmonic</text>
</g>
<!-- physics_acoustics__time_harmonic&#45;&gt;physics_thermoacoustics__time_harmonic -->
<g id="edge28" class="edge">
<title>physics_acoustics__time_harmonic&#45;&gt;physics_thermoacoustics__time_harmonic</title>
<path fill="none" stroke="#555555" d="M452.83,-679.64C473.72,-679.77 499.11,-679.92 521.35,-680.05"/>
<polygon fill="#555555" stroke="#555555" points="521.11,-683.55 531.13,-680.11 521.16,-676.55 521.11,-683.55"/>
</g>
</g>
</svg>
